<?xml version="1.0" encoding="UTF-8"?>
<svg width="601px" height="400px" viewBox="0 0 601 400" version="1.1" xmlns="http://www.w3.org/2000/svg" xmlns:xlink="http://www.w3.org/1999/xlink">
    <!-- Generator: Sketch 48.2 (47327) - http://www.bohemiancoding.com/sketch -->
    <title>Artboard 7</title>
    <desc>Created with Sketch.</desc>
    <defs></defs>
    <g id="Page-1" stroke="none" stroke-width="1" fill="none" fill-rule="evenodd">
        <g id="Artboard-7">
            <g id="Group-6" transform="translate(1.000000, 0.000000)">
                <g id="axis">
                    <path d="M201,2 L201,397" id="Line-Copy" stroke="#D8D8D8" stroke-width="4" stroke-linecap="square"></path>
                    <rect id="Rectangle" stroke="#9B9B9B" stroke-width="3" x="1.5" y="1.5" width="597" height="397"></rect>
                    <path d="M6.5,120.5 L593.5,120.5" id="Line-2" stroke="#F5A623" stroke-width="12" stroke-linecap="square"></path>
                    <path d="M0.5,260.5 L597.5,260.5" id="Line-2-Copy" stroke="#D8D8D8" stroke-width="3" stroke-linecap="square" stroke-dasharray="1,1"></path>
                    <g id="label" transform="translate(426.000000, 14.000000)">
                        <rect id="Rectangle-3" fill="#FFFFFF" x="2" y="127" width="21" height="256"></rect>
                        <text id="CROSS/column-axis" transform="translate(12.000000, 218.000000) rotate(90.000000) translate(-12.000000, -218.000000) " font-family="Futura-Bold, Futura" font-size="18" font-weight="bold" fill="#000000">
                            <tspan x="-83.13" y="225">CROSS/column axis</tspan>
                        </text>
                        <path d="M11,108 L11,0" id="Line-5" stroke="#000000" stroke-width="2" stroke-linecap="square"></path>
                        <path id="Line-5-decoration-1" d="M11,0 L8,10.8 L14,10.8 L11,0 Z" stroke="#000000" stroke-width="2" stroke-linecap="square"></path>
                        <path d="M11,331 L11,379" id="Line-6" stroke="#000000" stroke-width="2" stroke-linecap="square"></path>
                        <path id="Line-6-decoration-1" d="M11,379 L14,368.2 L8,368.2 L11,379 Z" stroke="#000000" stroke-width="2" stroke-linecap="square"></path>
                    </g>
                    <g id="label" transform="translate(19.000000, 76.000000)">
                        <rect id="Rectangle-4" fill="#FFFFFF" x="0" y="1" width="535" height="23"></rect>
                        <text id="MAIN/row-axis" font-family="Futura-Bold, Futura" font-size="18" font-weight="bold" fill="#000000">
                            <tspan x="100.986027" y="19">MAIN/row axis</tspan>
                        </text>
                        <path d="M261.5,13.5 L560.5,13.5" id="Line-4" stroke="#000000" stroke-width="2" stroke-linecap="square"></path>
                        <path id="Line-4-decoration-1" d="M560.5,13.5 L549.7,10.5 L549.7,16.5 L560.5,13.5 Z" stroke="#000000" stroke-width="2" stroke-linecap="square"></path>
                        <path d="M89.5,14.5 L4.5,14.5" id="Line-3" stroke="#000000" stroke-width="2" stroke-linecap="square"></path>
                        <path id="Line-3-decoration-1" d="M4.5,14.5 L15.3,17.5 L15.3,11.5 L4.5,14.5 Z" stroke="#000000" stroke-width="2" stroke-linecap="square"></path>
                    </g>
                    <path d="M401,8 L401,394" id="Line" stroke="#F5A623" stroke-width="12" stroke-linecap="square"></path>
                </g>
            </g>
        </g>
    </g>
</svg>