<?xml version="1.0" encoding="UTF-8"?>
<svg width="1218px" height="1013px" viewBox="0 0 1218 1013" version="1.1" xmlns="http://www.w3.org/2000/svg" xmlns:xlink="http://www.w3.org/1999/xlink">
    <!-- Generator: Sketch 48.2 (47327) - http://www.bohemiancoding.com/sketch -->
    <title>Artboard 5</title>
    <desc>Created with Sketch.</desc>
    <defs>
        <rect id="path-1" x="622" y="420" width="358" height="358" rx="14"></rect>
        <rect id="path-2" x="21" y="21" width="1157" height="164.330002" rx="14"></rect>
        <rect id="path-3" x="17" y="614" width="168" height="168" rx="14"></rect>
    </defs>
    <g id="Page-1" stroke="none" stroke-width="1" fill="none" fill-rule="evenodd">
        <g id="Artboard-5">
            <g id="Group-17" transform="translate(9.000000, 10.000000)" stroke="#576B95" stroke-linecap="square" stroke-width="20">
                <g id="Group-16" transform="translate(200.000000, 200.000000)">
                    <path d="M1,0 L1,792" id="Line-7" transform="translate(1.000000, 396.000000) scale(-1, -1) translate(-1.000000, -396.000000) "></path>
                    <path d="M202,0 L202,792" id="Line-7-Copy-4" transform="translate(202.000000, 396.000000) scale(-1, -1) translate(-202.000000, -396.000000) "></path>
                    <path d="M401,0 L401,792" id="Line-7-Copy-5" transform="translate(401.000000, 396.000000) scale(-1, -1) translate(-401.000000, -396.000000) "></path>
                    <path d="M600,0 L600,792" id="Line-7-Copy-6" transform="translate(600.000000, 396.000000) scale(-1, -1) translate(-600.000000, -396.000000) "></path>
                    <path d="M799,0 L799,792" id="Line-7-Copy-7" transform="translate(799.000000, 396.000000) scale(-1, -1) translate(-799.000000, -396.000000) "></path>
                </g>
                <path d="M1199,0 L1199,993" id="Line-7-Copy-10" transform="translate(1199.000000, 496.500000) scale(-1, -1) translate(-1199.000000, -496.500000) "></path>
                <path d="M1,0 L1,993" id="Line-7-Copy-11" transform="translate(1.000000, 496.500000) scale(-1, -1) translate(-1.000000, -496.500000) "></path>
            </g>
            <g id="Group-8" transform="translate(17.000000, 9.000000)" stroke="#576B95" stroke-linecap="square" stroke-width="20">
                <path d="M0,396 L1180,396" id="Line-7"></path>
                <path d="M0,201 L1180,201" id="Line-7-Copy-3"></path>
                <path d="M0,1 L1180,1" id="Line-7-Copy-9"></path>
                <path d="M0,594 L1180,594" id="Line-7-Copy-2"></path>
                <path d="M0,796 L1180,796" id="Line-7-Copy"></path>
                <path d="M0,994 L1180,994" id="Line-7-Copy-8"></path>
            </g>
            <g id="Group-7" transform="translate(9.000000, 6.000000)">
                <rect id="Rectangle-7" stroke="#979797" x="402.5" y="0.5" width="199" height="199"></rect>
                <rect id="Rectangle-7-Copy" stroke="#4A4A4A" stroke-width="3" x="401.5" y="200.5" width="197" height="197"></rect>
                <rect id="Rectangle-7-Copy-2" stroke="#4A4A4A" stroke-width="3" x="402.5" y="399.5" width="197" height="197"></rect>
                <rect id="Rectangle-7-Copy-3" stroke="#4A4A4A" stroke-width="3" x="402.5" y="598.5" width="197" height="197"></rect>
                <rect id="Rectangle-7" stroke="#979797" x="201.5" y="0.5" width="199" height="199"></rect>
                <rect id="Rectangle-7-Copy" stroke="#4A4A4A" stroke-width="3" x="201.5" y="200.5" width="197" height="197"></rect>
                <rect id="Rectangle-7-Copy-2" stroke="#4A4A4A" stroke-width="3" x="201.5" y="399.5" width="197" height="197"></rect>
                <rect id="Rectangle-7-Copy-3" stroke="#4A4A4A" stroke-width="3" x="201.5" y="598.5" width="197" height="197"></rect>
                <rect id="Rectangle-7" stroke="#979797" x="0.5" y="0.5" width="199" height="199"></rect>
                <rect id="Rectangle-7-Copy" stroke="#4A4A4A" stroke-width="3" x="1.5" y="200.5" width="197" height="197"></rect>
                <rect id="Rectangle-7-Copy-2" stroke="#4A4A4A" stroke-width="3" x="1.5" y="399.5" width="197" height="197"></rect>
                <rect id="Rectangle-7-Copy-3" stroke="#4A4A4A" stroke-width="3" x="1.5" y="598.5" width="197" height="197"></rect>
                <rect id="Rectangle-7" stroke="#979797" x="604.5" y="0.5" width="199" height="199"></rect>
                <rect id="Rectangle-7-Copy" stroke="#4A4A4A" stroke-width="3" x="601.5" y="200.5" width="197" height="197"></rect>
                <rect id="Rectangle-7-Copy-2" stroke="#979797" x="606.5" y="398.5" width="199" height="199"></rect>
                <rect id="Rectangle-7-Copy-3" stroke="#979797" x="604.5" y="596.5" width="199" height="199"></rect>
                <rect id="Rectangle-7" stroke="#979797" x="804.5" y="0.5" width="199" height="199"></rect>
                <rect id="Rectangle-7-Copy" stroke="#4A4A4A" stroke-width="3" x="801.5" y="200.5" width="197" height="197"></rect>
                <rect id="Rectangle-7-Copy-2" stroke="#979797" x="804.5" y="398.5" width="199" height="199"></rect>
                <rect id="Rectangle-7-Copy-3" stroke="#979797" x="798.5" y="596.5" width="199" height="199"></rect>
                <rect id="Rectangle-7" stroke="#979797" x="1000.5" y="0.5" width="199" height="199"></rect>
                <rect id="Rectangle-7-Copy" stroke="#4A4A4A" stroke-width="3" x="1001.5" y="200.5" width="197" height="197"></rect>
                <rect id="Rectangle-7-Copy-2" stroke="#4A4A4A" stroke-width="3" x="1001.5" y="399.5" width="197" height="197"></rect>
                <rect id="Rectangle-7-Copy-3" stroke="#4A4A4A" stroke-width="3" x="1001.5" y="598.5" width="197" height="197"></rect>
                <rect id="Rectangle-7-Copy-4" stroke="#4A4A4A" stroke-width="3" x="401.5" y="798.5" width="197" height="197"></rect>
                <rect id="Rectangle-7-Copy-4" stroke="#4A4A4A" stroke-width="3" x="201.5" y="798.5" width="197" height="197"></rect>
                <rect id="Rectangle-7-Copy-4" stroke="#4A4A4A" stroke-width="3" x="1.5" y="798.5" width="197" height="197"></rect>
                <rect id="Rectangle-7-Copy-4" stroke="#4A4A4A" stroke-width="3" x="601.5" y="798.5" width="197" height="197"></rect>
                <rect id="Rectangle-7-Copy-4" stroke="#4A4A4A" stroke-width="3" x="801.5" y="798.5" width="197" height="197"></rect>
                <rect id="Rectangle-7-Copy-4" stroke="#4A4A4A" stroke-width="3" x="1001.5" y="798.5" width="197" height="197"></rect>
                <g id="Rectangle-2">
                    <use fill="#B8E986" fill-rule="evenodd" xlink:href="#path-1"></use>
                    <rect stroke="#4A4A4A" stroke-width="3" x="623.5" y="421.5" width="355" height="355" rx="14"></rect>
                </g>
                <text id="AREA" font-family="Futura-Bold, Futura" font-size="18" font-weight="bold" fill="#000000">
                    <tspan x="778.053" y="603">AREA</tspan>
                </text>
                <g id="Rectangle-2">
                    <use fill="#B8E986" fill-rule="evenodd" xlink:href="#path-2"></use>
                    <rect stroke="#4A4A4A" stroke-width="3" x="22.5" y="22.5" width="1154" height="161.330002" rx="14"></rect>
                </g>
                <g id="Rectangle-2">
                    <use fill="#B8E986" fill-rule="evenodd" xlink:href="#path-3"></use>
                    <rect stroke="#4A4A4A" stroke-width="3" x="18.5" y="615.5" width="165" height="165" rx="14"></rect>
                </g>
                <text id="CELL" font-family="Futura-Bold, Futura" font-size="18" font-weight="bold" fill="#000000">
                    <tspan x="79.291" y="701">CELL</tspan>
                </text>
                <text id="TRACK-Copy" font-family="Futura-Bold, Futura" font-size="18" font-weight="bold" fill="#000000">
                    <tspan x="572.464" y="105">TRACK</tspan>
                </text>
            </g>
        </g>
    </g>
</svg>